<svg xmlns="http://www.w3.org/2000/svg" xmlns:xlink="http://www.w3.org/1999/xlink" viewBox="0 0 1000 1000" width="1000" height="1000" preserveAspectRatio="xMidYMid meet" style="width: 100%; height: 100%; transform: translate3d(0px, 0px, 0px); content-visibility: visible;"><defs><clipPath id="__lottie_element_1102"><rect width="1000" height="1000" x="0" y="0"></rect></clipPath><clipPath id="__lottie_element_1108"><path d="M0,0 L1000,0 L1000,1000 L0,1000z"></path></clipPath><clipPath id="__lottie_element_1115"><path d="M0,0 L1000,0 L1000,1000 L0,1000z"></path></clipPath><clipPath id="__lottie_element_1116"><path fill="#ffffff" clip-rule="nonzero" d=" M696.60400390625,275.4639892578125 C696.60400390625,275.4639892578125 696.60400390625,770.8079833984375 696.60400390625,770.8079833984375 C696.60400390625,770.8079833984375 267.5539855957031,523.135986328125 267.5539855957031,523.135986328125 C267.5539855957031,523.135986328125 696.60400390625,275.4639892578125 696.60400390625,275.4639892578125" fill-opacity="1"></path></clipPath><g id="__lottie_element_1124"><g clip-path="url(#__lottie_element_1125)" transform="matrix(1,0,0,1,0,0)" opacity="1"><g clip-path="url(#__lottie_element_1126)" style="display: block;"><g transform="matrix(1,0,0,1,0,0)" opacity="1" style="display: block;"><g opacity="1" transform="matrix(1,0,0,1,486.3290100097656,522.385986328125)"><path fill="rgb(247,247,247)" fill-opacity="1" d=" M214.52499389648438,-247.6719970703125 C214.52499389648438,-247.6719970703125 214.52499389648438,247.6719970703125 214.52499389648438,247.6719970703125 C214.52499389648438,247.6719970703125 -214.52499389648438,0 -214.52499389648438,0 C-214.52499389648438,0 214.52499389648438,-247.6719970703125 214.52499389648438,-247.6719970703125z"></path></g></g></g></g></g><clipPath id="__lottie_element_1125"><path d="M0,0 L1000,0 L1000,1000 L0,1000z"></path></clipPath><clipPath id="__lottie_element_1126"><path fill="#ffffff" clip-rule="nonzero" d=" M747.375,208 C747.375,208 265,208 265,208 C265,208 265,777 265,777 C265,777 747.375,777 747.375,777 C747.375,777 747.375,208 747.375,208" fill-opacity="1"></path></clipPath><filter id="__lottie_element_1134" filterUnits="objectBoundingBox" x="0%" y="0%" width="100%" height="100%"><feComponentTransfer in="SourceGraphic"><feFuncA type="table" tableValues="1.0 0.0"></feFuncA></feComponentTransfer></filter><mask id="__lottie_element_1124_2" mask-type="alpha"><g filter="url(#__lottie_element_1134)"><rect width="1000" height="1000" x="0" y="0" fill="#ffffff" opacity="0"></rect><use xlink:href="#__lottie_element_1124"></use></g></mask></defs><g clip-path="url(#__lottie_element_1102)"><g clip-path="url(#__lottie_element_1108)" transform="matrix(1,0,0,1,-58,-20)" opacity="1" style="display: block;"><g transform="matrix(1,0,0,1,0,0)" opacity="1" style="display: block;"><g opacity="1" transform="matrix(1,0,0,1,617.7020263671875,522.3909912109375)"><path fill="rgb(247,247,247)" fill-opacity="1" d=" M-83.1780014038086,-204.072998046875 C-83.1780014038086,-204.072998046875 -128.52200317382812,-177.89300537109375 -128.52200317382812,-177.89300537109375 C-128.52200317382812,-177.89300537109375 -83.13800048828125,-151.68699645996094 -83.13800048828125,-151.68699645996094 C-83.13800048828125,-151.68699645996094 -83.13500213623047,-151.68699645996094 -83.13500213623047,-151.68699645996094 C-83.13500213623047,-151.68699645996094 83.13500213623047,-55.69200134277344 83.13500213623047,-55.69200134277344 C83.13500213623047,-55.69200134277344 83.13500213623047,247.68600463867188 83.13500213623047,247.68600463867188 C83.13500213623047,247.68600463867188 38.07699966430664,221.67100524902344 38.07699966430664,221.67100524902344 C38.07699966430664,221.67100524902344 38.07699966430664,274.0780029296875 38.07699966430664,274.0780029296875 C38.07699966430664,274.0780029296875 128.52200317382812,326.2969970703125 128.52200317382812,326.2969970703125 C128.52200317382812,326.2969970703125 128.52200317382812,-326.2959899902344 128.52200317382812,-326.2959899902344 C128.52200317382812,-326.2959899902344 -83.1780014038086,-204.072998046875 -83.1780014038086,-204.072998046875z M-37.79100036621094,-177.8699951171875 C-37.79100036621094,-177.8699951171875 83.13500213623047,-247.68600463867188 83.13500213623047,-247.68600463867188 C83.13500213623047,-247.68600463867188 83.13500213623047,-108.0510025024414 83.13500213623047,-108.0510025024414 C83.13500213623047,-108.0510025024414 -37.79100036621094,-177.8699951171875 -37.79100036621094,-177.8699951171875z"></path></g></g><g transform="matrix(1,0,0,1,0,0)" opacity="1" style="display: block;"><g opacity="1" transform="matrix(1,0,0,1,587.7000122070312,634.97998046875)"><path fill="rgb(247,247,247)" fill-opacity="1" d=" M68.0790023803711,-135.28399658203125 C68.0790023803711,-135.28399658203125 68.0790023803711,-89.89700317382812 68.0790023803711,-89.89700317382812 C68.0790023803711,-89.89700317382812 22.691999435424805,-89.89700317382812 22.691999435424805,-89.89700317382812 C22.691999435424805,-89.89700317382812 22.691999435424805,135.28399658203125 22.691999435424805,135.28399658203125 C22.691999435424805,135.28399658203125 -22.691999435424805,109.08100128173828 -22.691999435424805,109.08100128173828 C-22.691999435424805,109.08100128173828 -68.0790023803711,82.87899780273438 -68.0790023803711,82.87899780273438 C-68.0790023803711,82.87899780273438 -68.0790023803711,30.47100067138672 -68.0790023803711,30.47100067138672 C-68.0790023803711,30.47100067138672 -22.691999435424805,56.67599868774414 -22.691999435424805,56.67599868774414 C-22.691999435424805,56.67599868774414 -22.691999435424805,-89.89700317382812 -22.691999435424805,-89.89700317382812 C-22.691999435424805,-89.89700317382812 -68.0790023803711,-89.89700317382812 -68.0790023803711,-89.89700317382812 C-68.0790023803711,-89.89700317382812 -68.0790023803711,-135.28399658203125 -68.0790023803711,-135.28399658203125 C-68.0790023803711,-135.28399658203125 68.0790023803711,-135.28399658203125 68.0790023803711,-135.28399658203125z"></path></g></g><g transform="matrix(1,0,0,1,0,0)" opacity="1" style="display: block;"><g opacity="1" transform="matrix(1,0,0,1,335.06298828125,531.2109985351562)"><path fill="rgb(247,247,247)" fill-opacity="1" d=" M103.9280014038086,-93.85099792480469 C103.9280014038086,-93.85099792480469 149.31500244140625,-93.85099792480469 149.31500244140625,-93.85099792480469 C149.31500244140625,-93.85099792480469 149.31500244140625,76.23400115966797 149.31500244140625,76.23400115966797 C149.31500244140625,76.23400115966797 103.9280014038086,76.23400115966797 103.9280014038086,76.23400115966797 C103.9280014038086,76.23400115966797 103.9280014038086,13.871999740600586 103.9280014038086,13.871999740600586 C103.9280014038086,13.871999740600586 -23.926000595092773,13.871999740600586 -23.926000595092773,13.871999740600586 C-23.926000595092773,13.871999740600586 139.1719970703125,108.03700256347656 139.1719970703125,108.03700256347656 C139.1719970703125,108.03700256347656 139.1719970703125,160.4429931640625 139.1719970703125,160.4429931640625 C139.1719970703125,160.4429931640625 -114.6969985961914,13.871999740600586 -114.6969985961914,13.871999740600586 C-114.6969985961914,13.871999740600586 -154.00100708007812,-8.819999694824219 -154.00100708007812,-8.819999694824219 C-154.00100708007812,-8.819999694824219 -114.69100189208984,-31.514999389648438 -114.69100189208984,-31.514999389648438 C-114.69100189208984,-31.514999389648438 108.61399841308594,-160.4429931640625 108.61399841308594,-160.4429931640625 C108.61399841308594,-160.4429931640625 154.00100708007812,-134.23699951171875 154.00100708007812,-134.23699951171875 C154.00100708007812,-134.23699951171875 -23.920000076293945,-31.514999389648438 -23.920000076293945,-31.514999389648438 C-23.920000076293945,-31.514999389648438 103.9280014038086,-31.514999389648438 103.9280014038086,-31.514999389648438 C103.9280014038086,-31.514999389648438 103.9280014038086,-93.85099792480469 103.9280014038086,-93.85099792480469z"></path></g></g><g mask="url(#__lottie_element_1124_2)" style="display: none;"><g transform="matrix(1,0,0,1,0,0)" opacity="1"><g opacity="1" transform="matrix(1,0,0,1,463.64300537109375,522.3909912109375)"><path stroke-linecap="butt" stroke-linejoin="miter" fill-opacity="0" stroke-miterlimit="10" stroke="rgb(247,247,247)" stroke-opacity="1" stroke-width="0" d=" M-282.58099365234375,0 C-282.58099365234375,0 282.58099365234375,326.2969970703125 282.58099365234375,326.2969970703125 C282.58099365234375,326.2969970703125 282.58099365234375,-326.2969970703125 282.58099365234375,-326.2969970703125 C282.58099365234375,-326.2969970703125 -282.58099365234375,0 -282.58099365234375,0z"></path><path fill="rgb(247,247,247)" fill-opacity="1" d=" M-282.58099365234375,0 C-282.58099365234375,0 282.58099365234375,326.2969970703125 282.58099365234375,326.2969970703125 C282.58099365234375,326.2969970703125 282.58099365234375,-326.2969970703125 282.58099365234375,-326.2969970703125 C282.58099365234375,-326.2969970703125 -282.58099365234375,0 -282.58099365234375,0z"></path></g></g></g><g clip-path="url(#__lottie_element_1115)" transform="matrix(1,0,0,1,0,0)" opacity="1" style="display: block;"><g clip-path="url(#__lottie_element_1116)"><g transform="matrix(1,0,0,1,0,0)" opacity="1" style="display: block;"><g opacity="1" transform="matrix(1,0,0,1,374.2539978027344,522.385009765625)"><path fill="rgb(247,247,247)" fill-opacity="1" d=" M110.11599731445312,-85.0469970703125 C110.11599731445312,-85.0469970703125 110.11599731445312,85.0469970703125 110.11599731445312,85.0469970703125 C110.11599731445312,85.0469970703125 64.71900177001953,85.0469970703125 64.71900177001953,85.0469970703125 C64.71900177001953,85.0469970703125 64.71900177001953,22.672000885009766 64.71900177001953,22.672000885009766 C64.71900177001953,22.672000885009766 -70.77899932861328,22.672000885009766 -70.77899932861328,22.672000885009766 C-70.77899932861328,22.672000885009766 -110.11599731445312,0 -110.11599731445312,0 C-110.11599731445312,0 -70.77899932861328,-22.672000885009766 -70.77899932861328,-22.672000885009766 C-70.77899932861328,-22.672000885009766 64.71900177001953,-22.672000885009766 64.71900177001953,-22.672000885009766 C64.71900177001953,-22.672000885009766 64.71900177001953,-85.0469970703125 64.71900177001953,-85.0469970703125 C64.71900177001953,-85.0469970703125 110.11599731445312,-85.0469970703125 110.11599731445312,-85.0469970703125z"></path></g></g><g transform="matrix(1,0,0,1,0,0)" opacity="1" style="display: block;"><g opacity="1" transform="matrix(1,0,0,1,587.7020263671875,612.4149780273438)"><path fill="rgb(247,247,247)" fill-opacity="1" d=" M68.06900024414062,-112.7020034790039 C68.06900024414062,-112.7020034790039 68.06900024414062,-67.35700225830078 68.06900024414062,-67.35700225830078 C68.06900024414062,-67.35700225830078 22.672000885009766,-67.35700225830078 22.672000885009766,-67.35700225830078 C22.672000885009766,-67.35700225830078 22.672000885009766,112.70099639892578 22.672000885009766,112.70099639892578 C22.672000885009766,112.70099639892578 -22.67300033569336,86.52899932861328 -22.67300033569336,86.52899932861328 C-22.67300033569336,86.52899932861328 -22.67300033569336,-67.35700225830078 -22.67300033569336,-67.35700225830078 C-22.67300033569336,-67.35700225830078 -68.06900024414062,-67.35700225830078 -68.06900024414062,-67.35700225830078 C-68.06900024414062,-67.35700225830078 -68.06900024414062,-112.7020034790039 -68.06900024414062,-112.7020034790039 C-68.06900024414062,-112.7020034790039 68.06900024414062,-112.7020034790039 68.06900024414062,-112.7020034790039z"></path></g></g></g></g><g transform="matrix(1,0,0,1,0,0)" opacity="1" style="display: block;"><g opacity="1" transform="matrix(1,0,0,1,617.0969848632812,405.177001953125)"><path fill="rgb(247,247,247)" fill-opacity="1" d=" M87.41400146484375,11.218999862670898 C87.41400146484375,11.218999862670898 87.41400146484375,63.564998626708984 87.41400146484375,63.564998626708984 C87.41400146484375,63.564998626708984 -87.41400146484375,-37.393001556396484 -87.41400146484375,-37.393001556396484 C-87.41400146484375,-37.393001556396484 -42.069000244140625,-63.564998626708984 -42.069000244140625,-63.564998626708984 C-42.069000244140625,-63.564998626708984 87.41400146484375,11.218999862670898 87.41400146484375,11.218999862670898z"></path></g></g></g><g transform="matrix(16.34000015258789,0,0,16.34000015258789,-2458.760009765625,-8033.478515625)" opacity="1" style="display: block;"><path stroke-linecap="butt" stroke-linejoin="miter" fill-opacity="0" stroke-miterlimit="4" stroke="rgb(247,247,247)" stroke-opacity="1" stroke-width="2" d=" M206.07,522.39 C206.07,536.2 194.87,547.4 181.06,547.4 C167.25,547.4 156.05,536.2 156.05,522.39 C156.05,508.58 167.25,497.38 181.06,497.38 C194.87,497.38 206.07,508.58 206.07,522.39z"></path><g opacity="1" transform="matrix(1,0,0,1,181.06199645996094,522.3909912109375)"></g></g></g>
                </svg>